<?xml version="1.0" encoding="UTF-8" standalone="no"?>
<!-- Created with Inkscape (http://www.inkscape.org/) -->

<svg
   width="13.413875mm"
   height="14.766932mm"
   viewBox="0 0 13.413875 14.766932"
   version="1.1"
   id="svg1"
   inkscape:version="1.4 (e7c3feb100, 2024-10-09)"
   sodipodi:docname="favicon.svg"
   xmlns:inkscape="http://www.inkscape.org/namespaces/inkscape"
   xmlns:sodipodi="http://sodipodi.sourceforge.net/DTD/sodipodi-0.dtd"
   xmlns="http://www.w3.org/2000/svg"
   xmlns:svg="http://www.w3.org/2000/svg">
  <sodipodi:namedview
     id="namedview1"
     pagecolor="#ffffff"
     bordercolor="#000000"
     borderopacity="0.25"
     inkscape:showpageshadow="2"
     inkscape:pageopacity="0.0"
     inkscape:pagecheckerboard="0"
     inkscape:deskcolor="#d1d1d1"
     inkscape:document-units="mm"
     inkscape:zoom="2.8792368"
     inkscape:cx="40.983083"
     inkscape:cy="76.409137"
     inkscape:window-width="1920"
     inkscape:window-height="1011"
     inkscape:window-x="0"
     inkscape:window-y="32"
     inkscape:window-maximized="1"
     inkscape:current-layer="layer1" />
  <defs
     id="defs1" />
  <g
     inkscape:label="Layer 1"
     inkscape:groupmode="layer"
     id="layer1"
     transform="translate(-75.669704,-91.576849)">
    <path
       style="display:inline;fill:#4bbd00;fill-opacity:0.5;stroke-width:0.272224"
       d="m 76.020783,102.02185 c 0.547277,0.0118 1.212839,0.57321 1.698122,0.54817 0.320493,0.20373 1.862023,0.23727 2.594523,-0.54522 1.01114,-0.48828 0.73179,1.17362 0.42172,1.69109 -0.80328,0.86712 -1.16466,1.58226 -0.5383,1.10578 0.45838,-0.35338 0.44505,-1.12633 0.96388,-1.12811 -0.58154,0.65435 -0.6794,1.02786 -1.06336,1.47307 -0.44395,0.0218 0.46738,0.70635 0.25214,0.53676 0.33445,-0.2163 0.75296,0.81696 0.72176,0.19755 0.47596,0.11664 0.36361,0.38359 0.57738,0.0562 0.15917,-0.106 0.34201,-0.86934 0.3726,-0.86849 0.28184,-0.72215 0.95912,-2.03699 0.62674,-2.4728 0.61301,-0.61734 0.004,-1.68697 -0.20896,-1.62867 -1.51532,0.42123 -0.51185,-2.812399 -1.25577,-2.119179 0.056,-0.15179 -0.15242,1.504909 -0.14858,0.0859 0.80558,-1.62686 -2.12776,-1.26094 -0.53718,-2.12101 0.45158,0.25993 0.12993,-1.97251 0.15897,-1.88097 -0.16951,-0.6989 0.0876,-0.28713 -0.28119,-0.99867 0.31332,0.0284 -0.30947,-0.28069 -0.78031,-0.27437 -1.33767,-0.64283 -3.629187,0.57878 -3.138858,1.97205 0.670949,0.2518 -1.110967,0.19884 -0.534829,0.58122 0.176281,0.1287 1.092123,1.19921 1.957208,1.13986 1.910479,0.022 -0.06566,0.75932 -0.623782,1.25978 -0.532953,0.66198 -1.371182,1.662229 -1.20809,2.390289 0.455766,0.0393 -0.252881,0.71533 -0.02582,0.99967 z m 0.614923,-0.66042 c 0.08967,0.10745 0.01294,-0.008 0,0 z m -0.06313,-0.0744 c 0.116075,0.003 -0.06151,0.0965 0,0 z m -0.04189,-0.0848 c 0.116057,0.003 -0.06169,0.0964 0,0 z m 1.660342,0.4532 c -0.341124,-0.83092 0.59314,0.35087 0,0 z m 2.066,3.59437 c 1.01114,-0.25309 -0.34129,0.419 0,0 z m 0.38699,0.48941 c 0.191,-0.11998 -0.0832,0.22398 0,0 z m -0.0589,-0.98849 c 0.18139,0.0297 -0.32554,0.19178 0,0 z m 0.44389,0.84233 c 0.11243,0.0859 -0.21305,0.0263 0,0 z m -0.0204,-0.14819 c 0.15346,0.16649 -0.15197,0.007 0,0 z m 0.22327,-0.92025 c 0.13123,-0.8092 0.004,0.8884 0,0 z m -0.002,-0.98261 c 0.11238,0.0859 -0.213,0.0263 0,0 z m 0.0703,0.0532 c 0.20726,-0.21784 -0.0255,0.53016 0,0 z m -0.12566,-0.25448 c 0.11603,0.003 -0.0617,0.0963 0,0 z m -0.25134,-0.50897 c 0.11607,0.003 -0.0617,0.0963 0,0 z m 0.39211,0.56256 c 0.15347,0.16663 -0.1522,0.007 0,0 z m -0.20203,-0.49815 c 0.11602,0.003 -0.0615,0.0964 0,0 z m 0.1747,-0.0893 c 0.007,-1.39765 0.12102,1.49423 0,0 z m 0.69967,1.52161 c 0.11235,0.0859 -0.21306,0.0262 0,0 z m -0.79919,-1.65405 c 0.1405,-0.13778 -0.0899,0.21679 0,0 z m 0.0112,-0.13744 c 0.11599,0.003 -0.0616,0.0964 0,0 z m -0.36336,-1.00971 c 0.23414,0.21435 0.0673,0.55539 0,0 z m 0.69673,1.12519 c 0.32933,0.21642 -0.40068,-0.0564 0,0 z m -0.37316,-0.62341 c 0.11602,0.003 -0.0617,0.0964 0,0 z m -0.0737,-0.38957 c -0.0507,-0.58296 0.23848,0.87638 0,0 z m 0.21102,0.40088 c 0.19109,-0.12004 -0.0832,0.224 0,0 z m 0.93233,1.83452 c 0.11605,0.003 -0.0618,0.0963 0,0 z m -1.00323,-2.45897 c 0.1161,0.003 -0.0618,0.0963 0,0 z m 0.91744,0.91479 c 0.0188,0.25596 -0.63922,0.11768 0,0 z m -0.89546,-1.08391 c 0.11604,0.003 -0.0616,0.0964 0,0 z m 0.0726,-0.51065 c 0.26743,-2.4e-4 -0.30139,0.57341 -0.057,0.0282 z m -0.0909,-0.0606 c 0.116,0.003 -0.0616,0.0964 0,0 z m 0.19062,-0.0414 c 0.11602,0.003 -0.0616,0.0964 0,0 z m -0.66658,-2.097649 c 0.11603,0.003 -0.0618,0.0964 0,0 z m 1.94942,3.627159 c 0.11611,0.003 -0.0616,0.0964 0,0 z m -1.81373,-3.806409 c 0.16421,-0.31349 -0.12613,0.39293 0,0 z m -0.4541,-3.68723 c 0.24477,0.43083 -0.0991,-0.0129 0,0 z m -0.0697,-0.35589 c 0.15353,0.16658 -0.15213,0.007 0,0 z m -0.0968,-0.39184 c 0.11604,0.003 -0.0616,0.0964 0,0 z m -2.940594,8.573289 c 0.06796,-0.0941 -0.113974,-0.01 0,0 z m 2.459524,2.74222 c 0.0679,-0.0941 -0.11402,-0.01 0,0 z m 0.40092,0.58918 c 0.25582,-0.16752 -0.29344,0.10348 0,0 z m 0.29288,0.2816 c 0.068,-0.0941 -0.11403,-0.01 0,0 z m 0.12949,-0.0112 c -0.10606,-0.15193 0.005,-0.0108 0,0 z M 75.708206,96.015261 c 0.06801,-0.094 -0.113934,-0.01 0,0 z m 5.258762,10.328519 c 0.068,-0.0941 -0.11398,-0.01 0,0 z m -3.234754,-9.007059 c 0.06808,-0.094 -0.113972,-0.01 0,0 z m 3.166214,5.664269 c 0.0679,-0.0941 -0.11397,-0.009 0,0 z m 0.25578,-4.505229 c 0.0679,-0.0942 -0.11405,-0.009 0,0 z m -0.0204,-0.14818 c 0.068,-0.0941 -0.11394,-0.01 0,0 z m -0.0413,-0.1906 c 0.068,-0.0942 -0.11405,-0.009 0,0 z m -0.12453,-0.48366 c -0.0394,-0.22339 -0.0981,0.11716 0,0 z m 1.11217,1.71053 c 0.56631,0.996989 1.24054,2.878309 2.10573,1.084429 0.45533,-0.811449 0.38771,-0.806099 1.08075,-1.470879 -0.37019,-0.62614 -0.51218,-2.42137 -1.19419,-2.13289 -0.4834,-0.2387 -1.77494,-0.4523 -0.28726,-0.77837 0.60555,-0.66258 1.2265,-2.14798 0.38888,-2.66102 -0.81145,0.2573 -0.7329,0.62987 -0.38931,-0.46192 0.11358,0.0654 0.31708,-1.09609 -0.46324,-1.07302 -0.94742,-0.52318 -0.88004,0.5757 -1.32893,1.07354 -0.38608,0.72095 -1.12491,1.3537 -0.80045,1.81971 0.16199,0.94951 2.68219,1.68943 0.84415,2.1682 -0.87056,0.8834 -0.20728,1.01265 -0.27001,2.08643 l 0.0754,0.14644 z m 0.58126,0.12292 c 0.16316,0.21761 -0.0683,0.0857 0,0 z m 0.63603,0.540989 c 0.79148,0.29962 -0.83965,0.0196 0,0 z m -1.02843,-1.662829 c 0.11226,0.0859 -0.21305,0.0262 0,0 z m 1.42825,1.36102 c 0.14052,-0.13786 -0.0898,0.21681 0,0 z m 0.0236,-0.48646 c 0.2177,-0.12637 -0.0486,0.30282 0,0 z m -0.16238,-0.37555 c 0.11917,-0.31343 0.29907,0.72741 0,0 z m 0.25798,0.30196 c 0.11604,0.003 -0.0616,0.0965 0,0 z m -0.0112,-0.1765 c 0.56979,0.52081 -0.11695,0.066 0,0 z m 0.64265,0.81428 c 0.11602,0.003 -0.0617,0.0964 0,0 z m -0.31417,-0.63621 c 0.11604,0.003 -0.0616,0.0964 0,0 z m -2.28194,-4.83466 c 0.11606,0.003 -0.0617,0.0964 0,0 z m 0.37431,-0.11449 c 0.11236,0.0859 -0.21306,0.0263 0,0 z m 2.39328,4.34694 c 0.36369,-0.24544 -0.0677,0.41799 0,0 z m -0.26205,-1.82952 c 0.116,0.003 -0.0616,0.0964 0,0 z m -2.07352,-4.19896 c 0.11606,0.003 -0.0619,0.0963 0,0 z m 0.25005,-0.24456 c 0.41096,-0.22182 -0.24527,0.89451 0,0 z m 0.71604,1.66672 c 0.11599,0.003 -0.0616,0.0964 0,0 z m -0.71692,-1.89691 c 0.15349,0.16675 -0.15229,0.007 0,0 z m 1.02785,1.76095 c 0.11238,0.0859 -0.213,0.0262 0,0 z m -0.0549,-0.30702 c 0.11603,0.003 -0.0617,0.0964 0,0 z m 0.39419,0.13946 c 0.11244,0.0859 -0.21304,0.0263 0,0 z m -0.42874,-1.7051 c 0.11604,0.003 -0.0617,0.0963 0,0 z m 0.83194,1.45322 c 0.11236,0.0859 -0.213,0.0262 0,0 z m -1.27524,2.98641 c 0.0681,-0.094 -0.11394,-0.01 0,0 z m 1.43727,0.23984 c 0.068,-0.0941 -0.11393,-0.01 0,0 z m -0.42421,-3.95831 c 0.068,-0.0941 -0.11398,-0.01 0,0 z"
       id="path77-7-8"
       sodipodi:nodetypes="ccccccccccccccccccccccccccccccccccccccccccccccccccccccccccccccccccccccccccccccccccccccccccccccccccccccccccccccccccccccccccccccccccccccccccccccccccccccccccccccccccccccccccccccccccccccccccccccccccc" />
    <path
       style="display:inline;fill:#d8005c;fill-opacity:0.81512547;stroke-width:0.56202"
       d="m 88.716115,93.221044 c -0.104859,-0.690753 0.231249,0.401419 0,0 z m -0.631039,0.592659 c -1.035602,0.633015 -1.734026,2.356526 -1.846627,0.830317 0.64508,-0.569869 1.135918,-2.256183 2.248891,-1.427715 -1.151279,0.155375 1.351929,0.327717 -0.40233,0.597348 z m 0.332214,-1.266827 c -0.439028,-0.04486 0.398024,-0.141546 0,0 z m -2.064319,3.077728 c -1.043185,1.018506 -2.452951,3.101363 -1.857862,2.592013 -1.013551,0.0876 -3.435812,2.858263 -4.588489,0.2289 0.21431,-1.506383 -2.182541,1.08222 -1.939915,-1.501032 0.277876,-1.19924 -1.192924,-4.946175 0.698783,-3.633608 1.331562,-1.379201 -1.197289,1.904695 0.66242,0.68184 -1.104924,-2.772312 4.425211,-2.44166 0.830159,-1.650521 2.253852,0.478026 2.868886,0.427531 -0.03889,1.681167 -0.376834,3.399908 1.235484,0.06583 1.045511,0.383919 -0.153854,2.695222 0.163986,-0.23573 1.323863,1.21682 0.07354,0.613846 1.685627,2.155815 1.042451,0.06351 1.092535,1.475841 1.598958,0.528108 0.573519,-0.335004 -1.203937,-0.634128 -3.177845,-1.761745 -0.66263,-2.377296 3.290587,2.840374 -0.496058,-1.464326 1.446719,-0.595633 0.226771,1.134448 1.220931,2.39835 1.464373,3.244779 z m -0.456702,-0.453511 c -0.1991,0.133615 0.214065,0.09999 0,0 z m -0.121604,0.257423 c -0.809671,-0.885253 -0.05397,-0.03068 -0.639063,0.511205 0.583741,-0.878431 0.930381,0.302322 0.639063,-0.511205 z m 0.0035,-0.441376 c -0.1991,0.133616 0.214066,0.09999 0,0 z m -0.140689,-0.247053 c -0.08344,0.460539 0.273249,-0.156342 0,0 z m -0.613484,-1.244412 c 0.58818,0.888502 -0.01558,0.01798 0,0 z m -0.06837,2.069602 c -0.1991,0.133616 0.214082,0.100004 0,0 z m -0.212982,1.668695 c -0.892648,0.09461 0.891501,0.142811 0,0 z m -0.151723,-0.457813 c -0.743279,-0.576606 -0.467094,-0.267299 0.07961,0.182364 z m -1.252231,-3.494635 c -0.198921,0.133726 0.214083,0.100004 0,0 z m 0.0058,0.981426 c -0.198933,0.133743 0.214066,0.09999 0,0 z m -0.342801,-0.454729 c -0.199101,0.133616 0.214082,0.100004 0,0 z m -0.685643,-0.909409 c -0.198921,0.133726 0.214082,0.100004 0,0 z m 0.05865,3.33286 c -0.198933,0.133744 0.214066,0.09999 0,0 z m -0.344041,0.461894 c -0.58484,0.86319 0.597053,0.511369 0,0 z m -0.02403,-0.226709 c -0.1991,0.133615 0.214066,0.09999 0,0 z m -0.544289,-0.406805 c -0.04462,0.559397 0.213525,0.07389 0,0 z m -0.44266,3.293895 c -0.08344,0.46051 0.273249,-0.15634 0,0 z m -1.007066,-6.663441 c 0.347744,0.21298 0.0151,0.05718 0,0 z m -1.703487,1.320182 c -0.198929,0.13372 0.214082,0.100004 0,0 z m 0.735983,-2.044124 c -2.214479,1.206697 0.559786,-1.310836 0,0 z m 0.05387,1.665217 c -0.444697,-0.177827 0.376329,-0.284851 0,0 z m -0.01772,0.296513 c -0.222562,-0.08908 0.188344,-0.142666 0,0 z"
       id="path75-8-3"
       sodipodi:nodetypes="cccccccccccccccccccccccccccccccccccccccccccccccccccccccccccccccccssccss" />
    <path
       style="display:inline;fill:#009949;fill-opacity:0.5;stroke-width:0.272224"
       d="m 88.292587,103.84452 c -0.402797,0.27441 -0.778711,0.0452 -1.42121,-0.33643 -0.435107,0.12069 -0.266625,-1.54353 0.346425,-1.84044 0.133908,-0.30565 2.64533,-0.98449 1.620742,0.63497 -0.03147,0.52777 -0.26339,1.1795 -0.545957,1.5419 z m -0.01961,-0.37334 c -0.0026,-0.1893 -0.105516,0.24584 0,0 z m -0.174601,0.18211 c -0.116036,0.003 0.06164,0.0964 0,0 z m -0.06048,-0.26358 c -0.382939,0.28503 0.333619,0.24994 0,0 z m 1.001946,-1.85659 c -0.116004,0.003 0.06151,0.0965 0,0 z m -2.233258,1.85157 c -0.116025,0.003 0.06154,0.0964 0,0 z m 0.898424,0.57772 c -0.318775,-0.074 0.284782,-0.0637 0,0 z m -0.98082,-0.0908 c -0.06799,-0.0941 0.113927,-0.01 0,0 z m -0.158281,0.0538 c -0.213379,-0.0523 0.313761,-0.15165 0,0 z m -0.117063,-0.13696 c -0.06794,-0.0942 0.114044,-0.009 0,0 z m -0.105955,-0.0523 c -0.167994,-0.1322 0.199541,0.0455 0,0 z m 2.156529,-4.421768 c -0.06813,-0.094 0.113935,-0.01 0,0 z m -0.07455,-0.11593 c -0.09055,-0.24369 0.14192,0.14331 0,0 z m -0.115642,-0.19325 c -0.42945,-0.37184 0.696728,0.18774 0.08107,0.10313 z m -2.328481,4.341208 c -0.0679,-0.0942 0.11406,-0.009 0,0 z m 1.884315,-4.073168 c -0.846955,1.141228 -1.448486,3.315618 -3.109205,3.303398 -0.15927,-0.85842 -0.46537,-1.93314 0.61849,-2.784528 -0.72772,-0.74609 2.757999,-1.975726 2.295204,-0.78508 0.212815,-0.21872 0.563721,0.15648 0.195511,0.26621 z m -1.808685,2.264008 c -0.10924,-0.22446 -0.0266,0.49735 0,0 z m -0.0916,-2.362608 c -0.38564,1.554238 2.212768,-2.987116 0,0 z m -0.18611,0.39657 c -0.11229,0.0859 0.21304,0.0262 0,0 z m -0.5112,4.988068 c 0.0394,-0.22344 0.0979,0.1174 0,0 z m 2.890477,-5.835488 c -0.06796,-0.0941 0.114023,-0.009 0,0 z m -2.581977,4.475448 c -0.068,-0.0941 0.11403,-0.01 0,0 z m -0.19052,-0.0413 c -0.068,-0.0941 0.11403,-0.01 0,0 z m -1.67288,-0.45685 c -0.068,-0.0941 0.11405,-0.01 0,0 z m -1.22926,-0.39602 c -0.068,-0.0941 0.11403,-0.01 0,0 z m -0.27611,-0.0836 c -0.068,-0.0941 0.11405,-0.01 0,0 z m -0.29659,-0.041 c -0.068,-0.0941 0.11401,-0.009 0,0 z m -0.14948,-0.0738 c -0.168,-0.13216 0.19954,0.0454 0,0 z"
       id="path77-7-8-1"
       sodipodi:nodetypes="ccccccccccccccccccccccccccccccccccccccccccccccccccccccccccccccc" />
  </g>
</svg>
