<?xml version="1.0" encoding="UTF-8" standalone="no"?>
<svg
   width="99pt"
   height="135pt"
   viewBox="0 0 99.000004 135"
   version="1.1"
   id="svg12"
   sodipodi:docname="ubc-logo-2018-crest-blue-cmyk.svg"
   inkscape:version="1.4 (e7c3feb100, 2024-10-09)"
   xmlns:inkscape="http://www.inkscape.org/namespaces/inkscape"
   xmlns:sodipodi="http://sodipodi.sourceforge.net/DTD/sodipodi-0.dtd"
   xmlns="http://www.w3.org/2000/svg"
   xmlns:svg="http://www.w3.org/2000/svg">
  <defs
     id="defs12" />
  <sodipodi:namedview
     id="namedview12"
     pagecolor="#ffffff"
     bordercolor="#000000"
     borderopacity="0.25"
     inkscape:showpageshadow="2"
     inkscape:pageopacity="0.0"
     inkscape:pagecheckerboard="0"
     inkscape:deskcolor="#d1d1d1"
     inkscape:document-units="pt"
     inkscape:zoom="2.8817754"
     inkscape:cx="65.931578"
     inkscape:cy="82.067464"
     inkscape:window-width="1920"
     inkscape:window-height="979"
     inkscape:window-x="0"
     inkscape:window-y="0"
     inkscape:window-maximized="1"
     inkscape:current-layer="svg12" />
  <path
     fill-rule="nonzero"
     fill="#0d1431"
     fill-opacity="1"
     d="m 49.5,50.132813 5.277341,38.289065 17.34375,-28.984378 -7.35937,31.878908 18.69922,-17.89063 -9.73828,23.6211 15.56249,-11.61328 C 82.042971,105.14453 75.730471,116.19141 49.5,125.17578 23.265625,116.19141 16.957031,105.14453 9.714843,85.433598 l 15.558594,11.61328 -9.738281,-23.6211 18.699219,17.89063 L 26.875,59.4375 44.222656,88.421878 Z m 0,0"
     id="path1" />
  <path
     fill-rule="nonzero"
     fill="#0d1431"
     fill-opacity="1"
     d="m 22.019531,37.304688 c -7.949219,0 -12.695312,-4.25 -12.695312,-11.398438 V 8.796876 h 6.589843 v 16.839843 c 0,4.152344 2.183594,6.433594 6.15625,6.433594 4.074219,0 6.234375,-2.183594 6.234375,-6.316406 V 8.796876 H 34.9375 v 16.996093 c 0,7.101563 -4.949219,11.511719 -12.917969,11.511719"
     id="path2" />
  <path
     fill-rule="nonzero"
     fill="#0d1431"
     fill-opacity="1"
     d="M 49.746093,36.832032 H 40.542969 V 8.796876 h 9.339843 c 6.828129,0 10.589849,2.652343 10.589849,7.445312 0,2.523438 -1.31641,4.46875 -3.82813,5.65625 3.36719,1.1875 5.07813,3.414062 5.07813,6.628906 0,5.359375 -4.25,8.304688 -11.976568,8.304688 m -2.835937,-4.683594 h 2.835937 c 2.562498,0 5.609378,-0.652344 5.609378,-3.777344 0,-3.222656 -3.09766,-3.90625 -5.703128,-3.90625 h -2.742187 z m 0,-12.089844 h 2.394531 c 3.207034,0 4.980474,-1.203125 4.980474,-3.382812 0,-2.144532 -1.54688,-3.191406 -4.718755,-3.191406 h -2.65625 z m 0,0"
     id="path3" />
  <path
     fill-rule="nonzero"
     fill="#0d1431"
     fill-opacity="1"
     d="m 80.179691,37.304688 c -9.07422,0 -14.9336,-5.664062 -14.9336,-14.453125 0,-8.683594 6.07422,-14.523437 15.11328,-14.523437 3.35157,0 6.17188,0.660156 8.6211,2.023437 l 0.21484,0.117187 -0.98437,5.707032 -0.4336,-0.289063 c -2.40625,-1.613281 -4.69531,-2.359375 -7.19531,-2.359375 -5.39062,0 -8.61328,3.476563 -8.61328,9.289063 0,5.710937 3.33203,9.253906 8.70312,9.253906 2.54297,0 5.04688,-0.761719 7.65235,-2.332031 l 0.42968,-0.257813 0.92969,5.328125 -0.20703,0.117188 c -2.67578,1.535156 -5.97656,2.378906 -9.29687,2.378906"
     id="path4" />
  <path
     fill-rule="nonzero"
     fill="#0d1431"
     fill-opacity="1"
     d="M 49.5,131.11328 C 18.53125,122.33985 3.75,101.89453 3.75,72.746098 V 3.75 h 91.500001 v 68.996098 c 0,29.148432 -14.78516,49.593752 -45.750001,58.367182 M 0,0 V 73.214848 C 0,103.98438 16.742187,126.26172 49.5,135 82.253901,126.26172 99.000001,103.98438 99.000001,73.214848 V 0 Z m 0,0"
     id="path5" />
  <path
     fill-rule="nonzero"
     fill="#0d1431"
     fill-opacity="1"
     d="m 49.5,46.761719 c 6.902341,0 7.835941,2.800781 13.394531,2.765625 5.53906,0.03516 6.48828,-2.765625 13.39063,-2.765625 6.90234,0 7.85156,2.800781 13.39453,2.765625 v -6.425781 c -5.54297,0.03516 -6.49219,-2.730469 -13.39453,-2.730469 -6.90235,0 -7.85157,2.765625 -13.39063,2.730469 -5.55859,0.03516 -6.49219,-2.730469 -13.394531,-2.730469 -6.902344,0 -7.835938,2.765625 -13.394531,2.730469 -5.539063,0.03516 -6.488282,-2.730469 -13.390626,-2.730469 -6.902343,0 -7.855468,2.765625 -13.394531,2.730469 v 6.425781 c 5.539063,0.03516 6.492188,-2.765625 13.394531,-2.765625 6.902344,0 7.851563,2.800781 13.390626,2.765625 5.558593,0.03516 6.492187,-2.765625 13.394531,-2.765625"
     id="path6" />
  <path
     fill-rule="nonzero"
     fill="#0d1431"
     fill-opacity="1"
     d="m 53.875001,58.378907 c 3.32812,0.796875 4.91406,2.316406 9.01953,2.289062 5.53906,0.03516 6.48828,-2.765625 13.39063,-2.765625 6.90234,0 7.85156,2.800782 13.39453,2.765625 v -6.425781 c -5.54297,0.03516 -6.49219,-2.730469 -13.39453,-2.730469 -6.90235,0 -7.85157,2.765625 -13.39063,2.730469 -4.46094,0.03125 -5.94531,-1.746094 -9.92969,-2.449219 z m 0,0"
     id="path7" />
  <path
     fill-rule="nonzero"
     fill="#0d1431"
     fill-opacity="1"
     d="m 36.105469,60.667969 c 4.105468,0.02734 5.691406,-1.492187 9.019531,-2.289062 l 0.90625,-6.585938 c -3.980469,0.703125 -5.464844,2.480469 -9.925781,2.449219 -5.539063,0.03516 -6.488282,-2.730469 -13.390626,-2.730469 -6.902343,0 -7.855468,2.765625 -13.394531,2.730469 v 6.425781 c 5.539063,0.03516 6.492188,-2.765625 13.394531,-2.765625 6.902344,0 7.851563,2.800782 13.390626,2.765625"
     id="path8" />
  <path
     fill-rule="nonzero"
     fill="#0d1431"
     fill-opacity="1"
     d="m 55.472661,69.988278 c 1.88281,0.64844 3.33203,1.4375 5.5664,1.71875 l 3.85938,-6.44531 c -0.60157,0.082 -1.26172,0.125 -2.00391,0.1211 -3.82031,0.0273 -5.45312,-1.26954 -8.34375,-2.08594 z m 0,0"
     id="path9" />
  <path
     fill-rule="nonzero"
     fill="#0d1431"
     fill-opacity="1"
     d="m 73.144531,69.277348 c 0.90234,-0.14453 1.92578,-0.23047 3.14063,-0.23047 6.90234,0 7.85156,2.80078 13.39453,2.76562 v -6.42968 c -5.54297,0.0391 -6.49219,-2.72657 -13.39453,-2.72657 -0.58204,0 -1.1211,0.0195 -1.625,0.0586 z m 0,0"
     id="path10" />
  <path
     fill-rule="nonzero"
     fill="#0d1431"
     fill-opacity="1"
     d="m 25.855469,69.277348 -1.515626,-6.56641 c -0.503906,-0.0352 -1.042968,-0.0547 -1.625,-0.0547 -6.902343,0 -7.855468,2.76563 -13.394531,2.72657 v 6.42968 c 5.539063,0.0352 6.492188,-2.76562 13.394531,-2.76562 1.210938,0 2.238282,0.0859 3.140626,0.23047"
     id="path11" />
  <path
     fill-rule="nonzero"
     fill="#0d1431"
     fill-opacity="1"
     d="m 37.957031,71.707028 c 2.238281,-0.28125 3.683594,-1.07031 5.566406,-1.71875 l 0.921875,-6.6914 c -2.886719,0.8164 -4.523437,2.11328 -8.339843,2.08594 -0.742188,0.008 -1.402344,-0.0391 -2.007813,-0.125 z m 0,0"
     id="path12" />
</svg>
